<svg width="200" height="200" viewBox="0 0 200 200" xmlns="http://www.w3.org/2000/svg">
  <!-- Background circle -->
  <circle cx="100" cy="100" r="90" fill="#2C3E50" stroke="#E74C3C" stroke-width="4"/>
  
  <!-- Central star (Benin symbol) -->
  <path d="M100 40 L110 70 L140 70 L115 90 L125 120 L100 100 L75 120 L85 90 L60 70 L90 70 Z" 
        fill="#E74C3C" stroke="#FFF" stroke-width="2"/>
  
  <!-- Traditional patterns around -->
  <circle cx="100" cy="100" r="75" fill="none" stroke="#E74C3C" stroke-width="2" stroke-dasharray="5,5"/>
  <circle cx="100" cy="100" r="60" fill="none" stroke="#FFF" stroke-width="1" stroke-dasharray="3,3"/>
  
  <!-- Cultural elements -->
  <g transform="translate(100, 100)">
    <!-- Top pattern -->
    <rect x="-15" y="-85" width="30" height="8" fill="#E74C3C" rx="2"/>
    <rect x="-15" y="-75" width="30" height="8" fill="#FFF" rx="2"/>
    
    <!-- Right pattern -->
    <rect x="77" y="-15" width="8" height="30" fill="#E74C3C" rx="2"/>
    <rect x="67" y="-15" width="8" height="30" fill="#FFF" rx="2"/>
    
    <!-- Bottom pattern -->
    <rect x="-15" y="67" width="30" height="8" fill="#E74C3C" rx="2"/>
    <rect x="-15" y="77" width="30" height="8" fill="#FFF" rx="2"/>
    
    <!-- Left pattern -->
    <rect x="-85" y="-15" width="8" height="30" fill="#E74C3C" rx="2"/>
    <rect x="-75" y="-15" width="8" height="30" fill="#FFF" rx="2"/>
  </g>
  
  <!-- Text "Culture Bénin" -->
  <text x="100" y="170" font-family="Arial, sans-serif" font-size="14" font-weight="bold" 
        text-anchor="middle" fill="#FFF">CULTURE BÉNIN</text>
  <text x="100" y="185" font-family="Arial, sans-serif" font-size="10" 
        text-anchor="middle" fill="#E74C3C">Patrimoine • Tradition • Modernité</text>
</svg>
